<svg xmlns="http://www.w3.org/2000/svg" viewBox="0 0 100 100" fill="none">
    <defs>
        <linearGradient id="heartGradient" x1="0%" y1="0%" x2="100%" y2="100%">
            <stop offset="0%" style="stop-color:#f43f5e;stop-opacity:1" />
            <stop offset="50%" style="stop-color:#ec4899;stop-opacity:1" />
            <stop offset="100%" style="stop-color:#be185d;stop-opacity:1" />
        </linearGradient>
    </defs>

    <!-- First Heart (left, slightly rotated) -->
    <g transform="translate(25,35) rotate(-15)">
        <path
            d="M12,21.35l-1.45-1.32C5.4,15.36,2,12.28,2,8.5 C2,5.42,4.42,3,7.5,3c1.74,0,3.41,0.81,4.5,2.09C13.09,3.81,14.76,3,16.5,3 C19.58,3,22,5.42,22,8.5c0,3.78-3.4,6.86-8.55,11.54L12,21.35z"
            fill="url(#heartGradient)"
            stroke="#be185d"
            stroke-width="0.5" />
    </g>

    <!-- Second Heart (right, slightly rotated) -->
    <g transform="translate(45,35) rotate(15)">
        <path
            d="M12,21.35l-1.45-1.32C5.4,15.36,2,12.28,2,8.5 C2,5.42,4.42,3,7.5,3c1.74,0,3.41,0.81,4.5,2.09C13.09,3.81,14.76,3,16.5,3 C19.58,3,22,5.42,22,8.5c0,3.78-3.4,6.86-8.55,11.54L12,21.35z"
            fill="url(#heartGradient)"
            stroke="#be185d"
            stroke-width="0.5" />
    </g>

    <!-- Connecting element - infinity symbol -->
    <g transform="translate(50,50)">
        <path d="M-15,0 C-15,-8 -8,-8 0,0 C8,-8 15,-8 15,0 C15,8 8,8 0,0 C-8,8 -15,8 -15,0 Z"
            fill="none"
            stroke="url(#heartGradient)"
            stroke-width="2"
            opacity="0.7" />
    </g>

    <!-- Small decorative elements -->
    <circle cx="30" cy="25" r="1.5" fill="#f43f5e" opacity="0.6" />
    <circle cx="70" cy="25" r="1.5" fill="#f43f5e" opacity="0.6" />
    <circle cx="50" cy="20" r="1" fill="#ec4899" opacity="0.8" />
</svg>